<svg xmlns="http://www.w3.org/2000/svg" xmlns:xlink="http://www.w3.org/1999/xlink" width="500" zoomAndPan="magnify" viewBox="0 0 375 374.999991" height="500" preserveAspectRatio="xMidYMid meet" version="1.0"><defs><g/><clipPath id="7ab470aef7"><path d="M 157.214844 132 L 178 132 L 178 162 L 157.214844 162 Z M 157.214844 132 " clip-rule="nonzero"/></clipPath><clipPath id="94a40b8e45"><path d="M 157.214844 131 L 179 131 L 179 163 L 157.214844 163 Z M 157.214844 131 " clip-rule="nonzero"/></clipPath><clipPath id="83ef18e1a9"><path d="M 197 132 L 217.964844 132 L 217.964844 162 L 197 162 Z M 197 132 " clip-rule="nonzero"/></clipPath><clipPath id="9a8f986e71"><path d="M 196 131 L 217.964844 131 L 217.964844 163 L 196 163 Z M 196 131 " clip-rule="nonzero"/></clipPath><clipPath id="0f91987cbf"><path d="M 177 123.375 L 198 123.375 L 198 170.625 L 177 170.625 Z M 177 123.375 " clip-rule="nonzero"/></clipPath></defs><g clip-path="url(#7ab470aef7)"><path fill="#03fa6e" d="M 176.378906 161.898438 C 176.042969 161.898438 175.714844 161.785156 175.449219 161.574219 L 158.460938 148.183594 C 158.09375 147.894531 157.886719 147.464844 157.886719 147 C 157.886719 146.535156 158.09375 146.101562 158.460938 145.8125 L 175.449219 132.421875 C 175.714844 132.214844 176.042969 132.101562 176.378906 132.101562 C 176.84375 132.101562 177.277344 132.308594 177.5625 132.675781 C 177.808594 132.992188 177.921875 133.386719 177.875 133.785156 C 177.828125 134.183594 177.625 134.542969 177.3125 134.792969 L 161.828125 147 L 177.3125 159.203125 C 177.625 159.457031 177.828125 159.8125 177.875 160.210938 C 177.921875 160.613281 177.808594 161.003906 177.5625 161.324219 C 177.277344 161.6875 176.84375 161.898438 176.378906 161.898438 " fill-opacity="1" fill-rule="nonzero"/></g><g clip-path="url(#94a40b8e45)"><path fill="#2a446b" d="M 176.378906 131.457031 C 175.902344 131.457031 175.433594 131.621094 175.054688 131.917969 L 158.0625 145.308594 C 157.542969 145.722656 157.246094 146.335938 157.246094 147 C 157.246094 147.660156 157.542969 148.277344 158.0625 148.6875 L 175.054688 162.082031 C 175.429688 162.375 175.902344 162.539062 176.378906 162.539062 C 177.042969 162.539062 177.660156 162.238281 178.066406 161.71875 C 178.421875 161.269531 178.578125 160.707031 178.511719 160.136719 C 178.445312 159.566406 178.160156 159.054688 177.707031 158.699219 L 162.863281 147 L 177.707031 135.296875 C 178.160156 134.941406 178.445312 134.429688 178.511719 133.863281 C 178.578125 133.292969 178.421875 132.730469 178.066406 132.277344 C 177.660156 131.753906 177.042969 131.457031 176.378906 131.457031 Z M 176.378906 132.742188 C 176.636719 132.742188 176.890625 132.855469 177.058594 133.070312 C 177.355469 133.449219 177.289062 133.992188 176.914062 134.289062 L 160.789062 147 L 176.914062 159.710938 C 177.289062 160.003906 177.355469 160.550781 177.058594 160.925781 C 176.890625 161.144531 176.636719 161.257812 176.378906 161.257812 C 176.191406 161.257812 176.007812 161.195312 175.847656 161.070312 L 158.855469 147.679688 C 158.648438 147.515625 158.527344 147.261719 158.527344 147 C 158.527344 146.730469 158.648438 146.484375 158.855469 146.320312 L 175.847656 132.925781 C 176.003906 132.800781 176.191406 132.742188 176.378906 132.742188 " fill-opacity="1" fill-rule="nonzero"/></g><g clip-path="url(#83ef18e1a9)"><path fill="#03fa6e" d="M 198.796875 161.898438 C 198.332031 161.898438 197.902344 161.6875 197.613281 161.324219 C 197.101562 160.671875 197.214844 159.71875 197.867188 159.203125 L 213.351562 147 L 197.867188 134.792969 C 197.214844 134.277344 197.101562 133.328125 197.613281 132.675781 C 197.902344 132.308594 198.332031 132.101562 198.796875 132.101562 C 199.132812 132.101562 199.464844 132.214844 199.726562 132.421875 L 216.71875 145.8125 C 217.082031 146.101562 217.289062 146.535156 217.289062 147 C 217.289062 147.464844 217.082031 147.894531 216.714844 148.183594 L 199.726562 161.574219 C 199.464844 161.785156 199.132812 161.898438 198.796875 161.898438 " fill-opacity="1" fill-rule="nonzero"/></g><g clip-path="url(#9a8f986e71)"><path fill="#2a446b" d="M 198.796875 131.457031 C 198.136719 131.457031 197.519531 131.753906 197.109375 132.277344 C 196.378906 133.210938 196.539062 134.5625 197.46875 135.296875 L 212.316406 147 L 197.46875 158.703125 C 196.539062 159.433594 196.378906 160.789062 197.109375 161.71875 C 197.519531 162.238281 198.136719 162.539062 198.796875 162.539062 C 199.277344 162.539062 199.746094 162.375 200.121094 162.082031 L 217.113281 148.6875 C 217.632812 148.277344 217.929688 147.660156 217.929688 147 C 217.929688 146.335938 217.632812 145.722656 217.117188 145.308594 L 200.125 131.917969 C 199.75 131.621094 199.277344 131.457031 198.796875 131.457031 Z M 198.796875 132.742188 C 198.984375 132.742188 199.175781 132.800781 199.332031 132.925781 L 216.320312 146.320312 C 216.527344 146.484375 216.648438 146.730469 216.648438 147 C 216.648438 147.261719 216.527344 147.515625 216.320312 147.679688 L 199.332031 161.070312 C 199.175781 161.195312 198.984375 161.257812 198.796875 161.257812 C 198.539062 161.257812 198.289062 161.144531 198.117188 160.925781 C 197.824219 160.550781 197.886719 160.003906 198.261719 159.710938 L 214.386719 147 L 198.261719 134.289062 C 197.886719 133.992188 197.824219 133.449219 198.117188 133.070312 C 198.289062 132.855469 198.542969 132.742188 198.796875 132.742188 " fill-opacity="1" fill-rule="nonzero"/></g><path fill="#03fa6e" d="M 179.144531 169.980469 C 178.957031 169.980469 178.777344 169.945312 178.601562 169.875 C 178.226562 169.730469 177.929688 169.449219 177.769531 169.082031 C 177.605469 168.710938 177.597656 168.300781 177.742188 167.929688 L 194.335938 124.980469 C 194.558594 124.40625 195.121094 124.019531 195.738281 124.019531 C 195.925781 124.019531 196.109375 124.054688 196.28125 124.121094 C 197.054688 124.421875 197.441406 125.296875 197.140625 126.074219 L 180.550781 169.015625 C 180.328125 169.589844 179.761719 169.980469 179.144531 169.980469 " fill-opacity="1" fill-rule="nonzero"/><g clip-path="url(#0f91987cbf)"><path fill="#2a446b" d="M 195.738281 123.375 C 194.859375 123.375 194.054688 123.929688 193.738281 124.75 L 177.144531 167.695312 C 176.9375 168.230469 176.953125 168.8125 177.183594 169.339844 C 177.414062 169.863281 177.835938 170.269531 178.371094 170.476562 C 178.621094 170.574219 178.878906 170.621094 179.144531 170.621094 C 180.023438 170.621094 180.828125 170.070312 181.148438 169.246094 L 197.738281 126.304688 C 198.167969 125.199219 197.617188 123.949219 196.511719 123.523438 C 196.265625 123.425781 196.003906 123.375 195.738281 123.375 Z M 195.738281 124.660156 C 195.84375 124.660156 195.945312 124.679688 196.050781 124.71875 C 196.496094 124.890625 196.714844 125.390625 196.542969 125.839844 L 179.949219 168.78125 C 179.820312 169.128906 179.492188 169.335938 179.144531 169.335938 C 179.039062 169.335938 178.9375 169.320312 178.832031 169.277344 C 178.386719 169.105469 178.167969 168.601562 178.339844 168.160156 L 194.933594 125.214844 C 195.066406 124.871094 195.390625 124.660156 195.738281 124.660156 " fill-opacity="1" fill-rule="nonzero"/></g><g fill="#ffffff" fill-opacity="1"><g transform="translate(87.382612, 206.757994)"><g><path d="M 5.550781 -26.839844 C 7.375 -26.839844 8.824219 -27.753906 8.824219 -29.742188 C 8.824219 -31.523438 7.496094 -32.597656 5.550781 -32.597656 C 3.644531 -32.597656 2.277344 -31.523438 2.277344 -29.742188 C 2.277344 -27.753906 3.769531 -26.839844 5.550781 -26.839844 Z M -0.578125 9.570312 C 6.007812 9.570312 8.90625 7.125 8.90625 0 L 8.90625 -23.777344 L 2.320312 -23.777344 L 2.320312 -0.207031 C 2.320312 2.859375 1.035156 4.101562 -2.238281 4.101562 C -3.148438 4.101562 -4.390625 3.894531 -5.425781 3.644531 L -4.433594 9.113281 C -3.480469 9.402344 -1.617188 9.570312 -0.578125 9.570312 Z M -0.578125 9.570312 "/></g></g></g><g fill="#ffffff" fill-opacity="1"><g transform="translate(96.948882, 206.757994)"><g><path d="M 26.304688 -11.101562 C 26.304688 -19.59375 21.664062 -24.730469 14.042969 -24.730469 C 6.503906 -24.730469 1.65625 -19.511719 1.65625 -12.09375 L 1.65625 -12.054688 C 1.65625 -4.515625 6.835938 0.621094 14.828125 0.621094 C 19.46875 0.621094 22.742188 -0.828125 25.144531 -2.320312 L 22.285156 -7.414062 C 20.546875 -6.171875 18.019531 -5.136719 15.121094 -5.136719 C 11.515625 -5.136719 9.15625 -7.457031 8.492188 -10.519531 L 26.304688 -10.519531 Z M 14 -19.386719 C 17.191406 -19.386719 19.097656 -17.316406 19.59375 -14.582031 L 8.53125 -14.582031 C 9.15625 -17.316406 11.144531 -19.386719 14 -19.386719 Z M 14 -19.386719 "/></g></g></g><g fill="#ffffff" fill-opacity="1"><g transform="translate(123.370651, 206.757994)"><g><path d="M 8.824219 0 L 8.824219 -17.398438 C 9.363281 -17.523438 12.054688 -17.730469 13.046875 -17.730469 L 16.609375 -17.730469 L 16.609375 -23.777344 L 11.972656 -23.777344 C 9.816406 -23.777344 5.714844 -23.609375 2.238281 -22.863281 L 2.238281 0 Z M 8.824219 0 "/></g></g></g><g fill="#ffffff" fill-opacity="1"><g transform="translate(139.977303, 206.757994)"><g><path d="M 13.339844 -24.605469 C 10.3125 -24.605469 6.792969 -23.941406 5.011719 -23.238281 L 3.5625 -17.398438 C 6.171875 -18.433594 9.570312 -19.054688 11.929688 -19.054688 C 15.574219 -19.054688 17.644531 -17.976562 17.644531 -14.996094 L 17.644531 -14.125 C 15.699219 -14.375 14 -14.457031 12.261719 -14.457031 C 5.757812 -14.457031 1.65625 -12.136719 1.65625 -7.082031 L 1.65625 -7 C 1.65625 -1.410156 6.171875 0.664062 13.460938 0.664062 C 16.691406 0.664062 20.960938 0.207031 24.230469 -0.496094 L 24.230469 -15.203125 C 24.230469 -22.242188 19.925781 -24.605469 13.339844 -24.605469 Z M 8.410156 -7.414062 C 8.410156 -9.527344 10.398438 -10.273438 13.710938 -10.273438 C 14.746094 -10.273438 16.320312 -10.148438 17.644531 -9.941406 L 17.644531 -4.804688 C 16.277344 -4.597656 14.828125 -4.472656 13.710938 -4.472656 C 10.355469 -4.472656 8.410156 -5.300781 8.410156 -7.332031 Z M 8.410156 -7.414062 "/></g></g></g><g fill="#ffffff" fill-opacity="1"><g transform="translate(164.783932, 206.757994)"><g><path d="M 8.824219 0 L 8.824219 -33.59375 L 2.238281 -33.59375 L 2.238281 0 Z M 8.824219 0 "/></g></g></g><g fill="#ffffff" fill-opacity="1"><g transform="translate(174.26737, 206.757994)"><g><path d="M 14.871094 0.664062 C 19.304688 0.664062 22.285156 0 25.683594 -1.65625 L 25.683594 -33.59375 L 19.136719 -33.59375 L 19.136719 -24.109375 C 17.6875 -24.4375 16.15625 -24.730469 14.621094 -24.730469 C 6.503906 -24.730469 1.699219 -19.386719 1.699219 -12.09375 L 1.699219 -12.011719 C 1.699219 -4.722656 6.75 0.664062 14.871094 0.664062 Z M 14.871094 -5.21875 C 10.5625 -5.21875 8.285156 -8.203125 8.285156 -12.011719 L 8.285156 -12.09375 C 8.285156 -15.90625 10.5625 -18.847656 14.871094 -18.847656 C 16.320312 -18.847656 17.851562 -18.515625 19.136719 -18.226562 L 19.136719 -5.757812 C 17.851562 -5.425781 16.445312 -5.21875 14.871094 -5.21875 Z M 14.871094 -5.21875 "/></g></g></g><g fill="#ffffff" fill-opacity="1"><g transform="translate(200.647722, 206.757994)"><g><path d="M 5.550781 -26.839844 C 7.375 -26.839844 8.824219 -27.753906 8.824219 -29.742188 C 8.824219 -31.523438 7.496094 -32.597656 5.550781 -32.597656 C 3.644531 -32.597656 2.277344 -31.523438 2.277344 -29.742188 C 2.277344 -27.753906 3.769531 -26.839844 5.550781 -26.839844 Z M -0.578125 9.570312 C 6.007812 9.570312 8.90625 7.125 8.90625 0 L 8.90625 -23.777344 L 2.320312 -23.777344 L 2.320312 -0.207031 C 2.320312 2.859375 1.035156 4.101562 -2.238281 4.101562 C -3.148438 4.101562 -4.390625 3.894531 -5.425781 3.644531 L -4.433594 9.113281 C -3.480469 9.402344 -1.617188 9.570312 -0.578125 9.570312 Z M -0.578125 9.570312 "/></g></g></g><g fill="#ffffff" fill-opacity="1"><g transform="translate(210.213987, 206.757994)"><g><path d="M 14.871094 0.664062 C 22.65625 0.664062 28.085938 -4.722656 28.085938 -12.054688 L 28.085938 -12.09375 C 28.085938 -19.386719 22.65625 -24.730469 14.871094 -24.730469 C 7.082031 -24.730469 1.699219 -19.386719 1.699219 -12.09375 L 1.699219 -12.054688 C 1.699219 -4.722656 7.125 0.664062 14.871094 0.664062 Z M 14.871094 -5.21875 C 10.933594 -5.21875 8.285156 -8.203125 8.285156 -12.054688 L 8.285156 -12.136719 C 8.285156 -15.949219 10.894531 -18.847656 14.871094 -18.847656 C 18.886719 -18.847656 21.457031 -15.949219 21.457031 -12.136719 L 21.457031 -12.054688 C 21.457031 -8.203125 18.847656 -5.21875 14.871094 -5.21875 Z M 14.871094 -5.21875 "/></g></g></g><g fill="#ffffff" fill-opacity="1"><g transform="translate(238.375148, 206.757994)"><g><path d="M 12.136719 0.539062 C 19.21875 0.539062 22.742188 -2.03125 22.742188 -7.167969 C 22.742188 -10.933594 20.253906 -13.253906 14.910156 -14.746094 L 13.214844 -15.203125 C 10.355469 -16.03125 9.195312 -16.609375 9.195312 -17.8125 C 9.195312 -19.136719 10.605469 -19.59375 13.007812 -19.59375 C 15.035156 -19.59375 17.894531 -19.136719 20.007812 -18.019531 L 21.914062 -22.617188 C 19.46875 -23.902344 15.824219 -24.6875 12.21875 -24.6875 C 6.046875 -24.6875 2.566406 -21.996094 2.566406 -17.605469 C 2.566406 -13.667969 4.804688 -11.351562 9.777344 -10.023438 L 12.011719 -9.445312 C 15.492188 -8.492188 16.277344 -7.953125 16.277344 -6.667969 C 16.277344 -4.929688 14.375 -4.554688 11.558594 -4.554688 C 9.15625 -4.554688 6.253906 -5.09375 3.480469 -6.296875 L 1.699219 -1.53125 C 5.09375 -0.125 8.410156 0.539062 12.136719 0.539062 Z M 12.136719 0.539062 "/></g></g></g><g fill="#ffffff" fill-opacity="1"><g transform="translate(261.19391, 206.757994)"><g><path d="M 26.304688 -11.101562 C 26.304688 -19.59375 21.664062 -24.730469 14.042969 -24.730469 C 6.503906 -24.730469 1.65625 -19.511719 1.65625 -12.09375 L 1.65625 -12.054688 C 1.65625 -4.515625 6.835938 0.621094 14.828125 0.621094 C 19.46875 0.621094 22.742188 -0.828125 25.144531 -2.320312 L 22.285156 -7.414062 C 20.546875 -6.171875 18.019531 -5.136719 15.121094 -5.136719 C 11.515625 -5.136719 9.15625 -7.457031 8.492188 -10.519531 L 26.304688 -10.519531 Z M 14 -19.386719 C 17.191406 -19.386719 19.097656 -17.316406 19.59375 -14.582031 L 8.53125 -14.582031 C 9.15625 -17.316406 11.144531 -19.386719 14 -19.386719 Z M 14 -19.386719 "/></g></g></g><g fill="#03fa6e" fill-opacity="1"><g transform="translate(75.921291, 235.941606)"><g><path d="M 8.984375 0.25 C 11.101562 0.25 12.714844 -0.347656 14.101562 -1.210938 L 12.925781 -3.695312 C 11.601562 -2.886719 10.292969 -2.578125 8.984375 -2.578125 C 6.136719 -2.578125 3.867188 -4.636719 3.867188 -7.773438 L 3.867188 -7.808594 C 3.867188 -11.082031 6.15625 -13.042969 8.984375 -13.042969 C 10.292969 -13.042969 11.601562 -12.714844 12.925781 -11.90625 L 14.101562 -14.390625 C 12.675781 -15.292969 11.023438 -15.871094 8.984375 -15.871094 C 4.097656 -15.871094 0.789062 -12.601562 0.789062 -7.808594 L 0.789062 -7.773438 C 0.789062 -2.980469 4.117188 0.25 8.984375 0.25 Z M 8.984375 0.25 "/></g></g></g><g fill="#03fa6e" fill-opacity="1"><g transform="translate(90.074603, 235.941606)"><g><path d="M 6.90625 0.308594 C 10.523438 0.308594 13.042969 -2.191406 13.042969 -5.597656 L 13.042969 -5.617188 C 13.042969 -9.003906 10.523438 -11.484375 6.90625 -11.484375 C 3.289062 -11.484375 0.789062 -9.003906 0.789062 -5.617188 L 0.789062 -5.597656 C 0.789062 -2.191406 3.308594 0.308594 6.90625 0.308594 Z M 6.90625 -2.425781 C 5.078125 -2.425781 3.847656 -3.808594 3.847656 -5.597656 L 3.847656 -5.636719 C 3.847656 -7.40625 5.058594 -8.753906 6.90625 -8.753906 C 8.773438 -8.753906 9.964844 -7.40625 9.964844 -5.636719 L 9.964844 -5.597656 C 9.964844 -3.808594 8.753906 -2.425781 6.90625 -2.425781 Z M 6.90625 -2.425781 "/></g></g></g><g fill="#03fa6e" fill-opacity="1"><g transform="translate(103.151004, 235.941606)"><g><path d="M 4.097656 0 L 4.097656 -8.578125 C 4.714844 -8.714844 5.269531 -8.773438 5.753906 -8.773438 C 6.945312 -8.773438 7.714844 -8.273438 7.714844 -6.867188 L 7.714844 0 L 10.753906 0 L 10.753906 -6.867188 C 10.753906 -8.023438 11.101562 -8.773438 12.601562 -8.773438 C 14.101562 -8.773438 14.449219 -8.023438 14.449219 -6.867188 L 14.449219 0 L 17.507812 0 L 17.507812 -7.214844 C 17.507812 -10.386719 15.753906 -11.503906 12.890625 -11.503906 C 11.292969 -11.503906 10.003906 -11.0625 9.214844 -10.023438 C 8.523438 -11.101562 7.289062 -11.503906 5.886719 -11.503906 C 4.90625 -11.503906 2.925781 -11.273438 1.039062 -10.925781 L 1.039062 0 Z M 4.097656 0 "/></g></g></g><g fill="#03fa6e" fill-opacity="1"><g transform="translate(120.958127, 235.941606)"><g><path d="M 4.097656 4.230469 L 4.097656 -0.0195312 C 4.769531 0.152344 5.484375 0.289062 6.195312 0.289062 C 9.945312 0.289062 12.195312 -2.191406 12.195312 -5.558594 L 12.195312 -5.597656 C 12.195312 -8.984375 9.832031 -11.484375 6.058594 -11.484375 C 4 -11.484375 2.367188 -10.964844 1.039062 -10.425781 L 1.039062 4.230469 Z M 6.058594 -2.441406 C 5.40625 -2.441406 4.695312 -2.597656 4.097656 -2.75 L 4.097656 -8.523438 C 4.695312 -8.675781 5.347656 -8.753906 6.058594 -8.753906 C 8.078125 -8.753906 9.117188 -7.386719 9.117188 -5.597656 L 9.117188 -5.558594 C 9.117188 -3.789062 8.078125 -2.441406 6.058594 -2.441406 Z M 6.058594 -2.441406 "/></g></g></g><g fill="#03fa6e" fill-opacity="1"><g transform="translate(133.207624, 235.941606)"><g><path d="M 6.15625 0.308594 C 7.273438 0.308594 9.445312 0.0585938 11.273438 -0.269531 L 11.273438 -11.042969 L 8.234375 -11.042969 L 8.234375 -2.5 C 7.523438 -2.367188 6.828125 -2.308594 6.289062 -2.308594 C 4.847656 -2.308594 4.097656 -2.808594 4.097656 -4.214844 L 4.097656 -11.042969 L 1.039062 -11.042969 L 1.039062 -3.964844 C 1.039062 -0.652344 3.425781 0.308594 6.15625 0.308594 Z M 6.15625 0.308594 "/></g></g></g><g fill="#03fa6e" fill-opacity="1"><g transform="translate(144.803275, 235.941606)"><g><path d="M 9.484375 0 L 9.484375 -2.828125 L 7.347656 -2.828125 C 6.039062 -2.828125 5.445312 -3.328125 5.445312 -4.558594 L 5.445312 -8.234375 L 9.464844 -8.234375 L 9.464844 -11.042969 L 5.445312 -11.042969 L 5.445312 -14.429688 L 2.386719 -14.429688 L 2.386719 -11.042969 L 0.441406 -11.042969 L 0.441406 -8.234375 L 2.386719 -8.234375 L 2.386719 -3.597656 C 2.386719 -1.191406 3.347656 0 5.984375 0 Z M 9.484375 0 "/></g></g></g><g fill="#03fa6e" fill-opacity="1"><g transform="translate(154.360493, 235.941606)"><g><path d="M 12.214844 -5.15625 C 12.214844 -9.097656 10.0625 -11.484375 6.523438 -11.484375 C 3.019531 -11.484375 0.769531 -9.0625 0.769531 -5.617188 L 0.769531 -5.597656 C 0.769531 -2.097656 3.175781 0.289062 6.886719 0.289062 C 9.042969 0.289062 10.5625 -0.382812 11.675781 -1.078125 L 10.351562 -3.445312 C 9.542969 -2.867188 8.367188 -2.386719 7.023438 -2.386719 C 5.347656 -2.386719 4.25 -3.460938 3.945312 -4.886719 L 12.214844 -4.886719 Z M 6.503906 -9.003906 C 7.984375 -9.003906 8.867188 -8.042969 9.097656 -6.773438 L 3.964844 -6.773438 C 4.25 -8.042969 5.175781 -9.003906 6.503906 -9.003906 Z M 6.503906 -9.003906 "/></g></g></g><g fill="#03fa6e" fill-opacity="1"><g transform="translate(166.629217, 235.941606)"><g><path d="M 4.097656 0 L 4.097656 -8.078125 C 4.347656 -8.136719 5.597656 -8.234375 6.058594 -8.234375 L 7.714844 -8.234375 L 7.714844 -11.042969 L 5.558594 -11.042969 C 4.558594 -11.042969 2.65625 -10.964844 1.039062 -10.617188 L 1.039062 0 Z M 4.097656 0 "/></g></g></g><g fill="#03fa6e" fill-opacity="1"><g transform="translate(174.340291, 235.941606)"><g/></g></g><g fill="#03fa6e" fill-opacity="1"><g transform="translate(176.859124, 235.941606)"><g><path d="M 4.058594 0 L 4.058594 -5.636719 L 8.117188 -5.636719 C 12.023438 -5.636719 13.640625 -7.964844 13.640625 -10.714844 L 13.640625 -10.734375 C 13.640625 -13.253906 12.195312 -15.601562 8.117188 -15.601562 L 1.058594 -15.601562 L 1.058594 0 Z M 4.058594 -12.792969 L 7.808594 -12.792969 C 9.582031 -12.792969 10.5625 -12.082031 10.5625 -10.523438 L 10.5625 -10.503906 C 10.5625 -8.964844 9.5625 -8.292969 7.808594 -8.292969 L 4.058594 -8.292969 Z M 4.058594 -12.792969 "/></g></g></g><g fill="#03fa6e" fill-opacity="1"><g transform="translate(190.435524, 235.941606)"><g><path d="M 4.097656 0 L 4.097656 -8.078125 C 4.347656 -8.136719 5.597656 -8.234375 6.058594 -8.234375 L 7.714844 -8.234375 L 7.714844 -11.042969 L 5.558594 -11.042969 C 4.558594 -11.042969 2.65625 -10.964844 1.039062 -10.617188 L 1.039062 0 Z M 4.097656 0 "/></g></g></g><g fill="#03fa6e" fill-opacity="1"><g transform="translate(198.146598, 235.941606)"><g><path d="M 6.90625 0.308594 C 10.523438 0.308594 13.042969 -2.191406 13.042969 -5.597656 L 13.042969 -5.617188 C 13.042969 -9.003906 10.523438 -11.484375 6.90625 -11.484375 C 3.289062 -11.484375 0.789062 -9.003906 0.789062 -5.617188 L 0.789062 -5.597656 C 0.789062 -2.191406 3.308594 0.308594 6.90625 0.308594 Z M 6.90625 -2.425781 C 5.078125 -2.425781 3.847656 -3.808594 3.847656 -5.597656 L 3.847656 -5.636719 C 3.847656 -7.40625 5.058594 -8.753906 6.90625 -8.753906 C 8.773438 -8.753906 9.964844 -7.40625 9.964844 -5.636719 L 9.964844 -5.597656 C 9.964844 -3.808594 8.753906 -2.425781 6.90625 -2.425781 Z M 6.90625 -2.425781 "/></g></g></g><g fill="#03fa6e" fill-opacity="1"><g transform="translate(211.222995, 235.941606)"><g><path d="M 7.136719 -11.484375 C 3.230469 -11.484375 0.789062 -9.582031 0.789062 -6.078125 L 0.789062 -6.039062 C 0.789062 -2.519531 3.097656 -0.5 7.039062 -0.5 C 7.695312 -0.5 8.328125 -0.578125 8.925781 -0.691406 L 8.925781 -0.230469 C 8.925781 1.152344 8.347656 1.75 6.523438 1.75 C 5.5 1.75 3.75 1.480469 2.65625 1.019531 L 3.328125 3.847656 C 4.019531 4.15625 5.558594 4.445312 6.925781 4.445312 C 9.617188 4.445312 11.984375 3.386719 11.984375 0.078125 L 11.984375 -10.386719 C 10.832031 -10.925781 9.023438 -11.484375 7.136719 -11.484375 Z M 3.847656 -6.019531 C 3.847656 -7.925781 5.058594 -8.753906 7.136719 -8.753906 C 7.734375 -8.753906 8.328125 -8.675781 8.925781 -8.484375 L 8.925781 -3.445312 C 8.273438 -3.289062 7.675781 -3.230469 7.15625 -3.230469 C 5.039062 -3.230469 3.847656 -4.097656 3.847656 -6.003906 Z M 3.847656 -6.019531 "/></g></g></g><g fill="#03fa6e" fill-opacity="1"><g transform="translate(223.510939, 235.941606)"><g><path d="M 4.097656 0 L 4.097656 -8.078125 C 4.347656 -8.136719 5.597656 -8.234375 6.058594 -8.234375 L 7.714844 -8.234375 L 7.714844 -11.042969 L 5.558594 -11.042969 C 4.558594 -11.042969 2.65625 -10.964844 1.039062 -10.617188 L 1.039062 0 Z M 4.097656 0 "/></g></g></g><g fill="#03fa6e" fill-opacity="1"><g transform="translate(231.222013, 235.941606)"><g><path d="M 6.195312 -11.425781 C 4.789062 -11.425781 3.15625 -11.121094 2.328125 -10.792969 L 1.65625 -8.078125 C 2.867188 -8.5625 4.445312 -8.847656 5.539062 -8.847656 C 7.234375 -8.847656 8.195312 -8.347656 8.195312 -6.964844 L 8.195312 -6.558594 C 7.289062 -6.675781 6.503906 -6.714844 5.695312 -6.714844 C 2.675781 -6.714844 0.769531 -5.636719 0.769531 -3.289062 L 0.769531 -3.25 C 0.769531 -0.652344 2.867188 0.308594 6.253906 0.308594 C 7.753906 0.308594 9.734375 0.0976562 11.253906 -0.230469 L 11.253906 -7.058594 C 11.253906 -10.332031 9.253906 -11.425781 6.195312 -11.425781 Z M 3.90625 -3.445312 C 3.90625 -4.425781 4.828125 -4.769531 6.367188 -4.769531 C 6.847656 -4.769531 7.578125 -4.714844 8.195312 -4.617188 L 8.195312 -2.230469 C 7.558594 -2.136719 6.886719 -2.078125 6.367188 -2.078125 C 4.808594 -2.078125 3.90625 -2.460938 3.90625 -3.40625 Z M 3.90625 -3.445312 "/></g></g></g><g fill="#03fa6e" fill-opacity="1"><g transform="translate(242.740742, 235.941606)"><g><path d="M 4.097656 0 L 4.097656 -8.578125 C 4.714844 -8.714844 5.269531 -8.773438 5.753906 -8.773438 C 6.945312 -8.773438 7.714844 -8.273438 7.714844 -6.867188 L 7.714844 0 L 10.753906 0 L 10.753906 -6.867188 C 10.753906 -8.023438 11.101562 -8.773438 12.601562 -8.773438 C 14.101562 -8.773438 14.449219 -8.023438 14.449219 -6.867188 L 14.449219 0 L 17.507812 0 L 17.507812 -7.214844 C 17.507812 -10.386719 15.753906 -11.503906 12.890625 -11.503906 C 11.292969 -11.503906 10.003906 -11.0625 9.214844 -10.023438 C 8.523438 -11.101562 7.289062 -11.503906 5.886719 -11.503906 C 4.90625 -11.503906 2.925781 -11.273438 1.039062 -10.925781 L 1.039062 0 Z M 4.097656 0 "/></g></g></g><g fill="#03fa6e" fill-opacity="1"><g transform="translate(260.547862, 235.941606)"><g><path d="M 4.097656 0 L 4.097656 -8.578125 C 4.714844 -8.714844 5.269531 -8.773438 5.753906 -8.773438 C 6.945312 -8.773438 7.714844 -8.273438 7.714844 -6.867188 L 7.714844 0 L 10.753906 0 L 10.753906 -6.867188 C 10.753906 -8.023438 11.101562 -8.773438 12.601562 -8.773438 C 14.101562 -8.773438 14.449219 -8.023438 14.449219 -6.867188 L 14.449219 0 L 17.507812 0 L 17.507812 -7.214844 C 17.507812 -10.386719 15.753906 -11.503906 12.890625 -11.503906 C 11.292969 -11.503906 10.003906 -11.0625 9.214844 -10.023438 C 8.523438 -11.101562 7.289062 -11.503906 5.886719 -11.503906 C 4.90625 -11.503906 2.925781 -11.273438 1.039062 -10.925781 L 1.039062 0 Z M 4.097656 0 "/></g></g></g><g fill="#03fa6e" fill-opacity="1"><g transform="translate(278.354994, 235.941606)"><g><path d="M 12.214844 -5.15625 C 12.214844 -9.097656 10.0625 -11.484375 6.523438 -11.484375 C 3.019531 -11.484375 0.769531 -9.0625 0.769531 -5.617188 L 0.769531 -5.597656 C 0.769531 -2.097656 3.175781 0.289062 6.886719 0.289062 C 9.042969 0.289062 10.5625 -0.382812 11.675781 -1.078125 L 10.351562 -3.445312 C 9.542969 -2.867188 8.367188 -2.386719 7.023438 -2.386719 C 5.347656 -2.386719 4.25 -3.460938 3.945312 -4.886719 L 12.214844 -4.886719 Z M 6.503906 -9.003906 C 7.984375 -9.003906 8.867188 -8.042969 9.097656 -6.773438 L 3.964844 -6.773438 C 4.25 -8.042969 5.175781 -9.003906 6.503906 -9.003906 Z M 6.503906 -9.003906 "/></g></g></g><g fill="#03fa6e" fill-opacity="1"><g transform="translate(290.623723, 235.941606)"><g><path d="M 4.097656 0 L 4.097656 -8.078125 C 4.347656 -8.136719 5.597656 -8.234375 6.058594 -8.234375 L 7.714844 -8.234375 L 7.714844 -11.042969 L 5.558594 -11.042969 C 4.558594 -11.042969 2.65625 -10.964844 1.039062 -10.617188 L 1.039062 0 Z M 4.097656 0 "/></g></g></g></svg>